# xmcd
#
# Track frame offsets:
# 150
# 18496
# 34569
# 52993
# 67073
# 78398
# 103627
# 120219
# 144696
# 158323
# 176543
# 222012
#
# Disc length: 3469 seconds
#
#
# Revision: 0
# Processed by: cddbd v1.5.1PL0 Copyright (c) Steve Scherf et al.
# Submitted via: FreeRIP 2.80 
#
DISCID=910d8b0c
DTITLE=madera de blues - legiones oníricas
DYEAR=2001
DGENRE=Jazz
TTITLE0=del panic a mogro
TTITLE1=frankenstein 1º
TTITLE2=vigas de luz
TTITLE3=hideway
TTITLE4=ida y vuelta
TTITLE5=parcelas de papel
TTITLE6=sin rodeos
TTITLE7=two fisted mama
TTITLE8=viaje
TTITLE9=nigromante
TTITLE10=los cucarachistas de abisinia
TTITLE11=data
EXTD=
EXTT0=
EXTT1=
EXTT2=
EXTT3=
EXTT4=
EXTT5=
EXTT6=
EXTT7=
EXTT8=
EXTT9=
EXTT10=
EXTT11=
PLAYORDER=
